<?xml version="1.0" standalone="no"?>
<!DOCTYPE svg PUBLIC "-//W3C//DTD SVG 20010904//EN"
 "http://www.w3.org/TR/2001/REC-SVG-20010904/DTD/svg10.dtd">
<svg version="1.0" xmlns="http://www.w3.org/2000/svg"
 width="721.000000pt" height="716.000000pt" viewBox="0 0 721.000000 716.000000"
 preserveAspectRatio="xMidYMid meet">

<g transform="translate(0.000000,716.000000) scale(0.100000,-0.100000)"
fill="#000000" stroke="none">
<path d="M0 3580 l0 -3580 3605 0 3605 0 0 3580 0 3580 -3605 0 -3605 0 0
-3580z m3714 3350 c396 -220 786 -561 1049 -915 305 -410 498 -898 514 -1295
9 -224 -20 -421 -123 -840 -19 -80 -38 -184 -41 -232 l-6 -88 70 -68 c181
-178 525 -406 766 -508 133 -56 279 -94 362 -94 38 0 66 -5 72 -12 15 -19 108
-262 132 -343 11 -38 25 -102 32 -142 20 -124 -16 -240 -175 -548 -100 -195
-222 -398 -314 -522 -88 -118 -232 -223 -577 -421 -570 -327 -1261 -606 -1790
-723 l-101 -22 -189 47 c-421 105 -856 271 -1336 512 -366 183 -740 410 -848
516 -105 102 -284 386 -426 673 -142 286 -167 392 -130 551 31 138 132 409
159 426 6 4 34 8 63 8 196 0 527 146 843 370 114 81 254 196 315 260 39 40 40
42 38 109 -1 37 -16 128 -34 202 -75 319 -91 390 -109 504 -44 267 -36 479 25
720 166 651 591 1240 1217 1688 146 104 391 247 423 247 6 0 59 -27 119 -60z
m-2479 -2255 c120 -187 219 -342 221 -344 7 -8 53 11 103 44 29 20 56 34 58
31 9 -9 -50 -165 -87 -230 l-40 -68 62 -132 c119 -249 119 -250 158 -259 96
-23 128 -134 61 -206 -55 -59 -149 -48 -191 21 -24 39 -25 79 -5 122 15 32 15
33 -77 221 l-93 189 -72 12 c-74 12 -150 35 -216 64 l-38 17 68 22 c126 41
129 -11 -29 461 -161 484 -156 466 -125 415 13 -22 122 -193 242 -380z m4946
398 c-5 -10 -71 -204 -146 -431 -133 -396 -137 -413 -119 -427 16 -11 75 -33
144 -52 32 -9 -134 -69 -242 -87 -82 -14 -66 6 -178 -229 -76 -158 -80 -169
-65 -190 26 -37 19 -97 -15 -139 -74 -90 -212 -40 -212 77 0 24 5 53 12 65 14
26 68 60 96 60 17 0 34 28 94 153 40 83 82 170 93 193 l19 41 -25 40 c-42 66
-118 263 -101 263 2 0 32 -18 66 -40 35 -22 70 -40 78 -40 8 0 52 57 97 128
324 506 405 632 409 632 3 0 0 -8 -5 -17z m-5542 -650 c52 -82 131 -204 176
-273 45 -69 98 -151 119 -183 42 -68 46 -68 139 -6 l58 38 -6 -32 c-11 -51
-64 -177 -96 -230 l-29 -47 75 -158 c107 -223 109 -226 145 -233 38 -8 74 -40
91 -81 25 -61 -27 -151 -96 -164 -68 -12 -145 50 -145 119 0 16 7 43 15 61 15
32 15 34 -75 222 l-90 189 -71 12 c-39 7 -87 17 -107 24 -84 27 -142 51 -142
59 0 4 15 11 33 14 17 3 55 17 83 30 l51 23 -144 429 c-78 236 -143 431 -143
434 0 3 15 -19 33 -47 17 -29 74 -119 126 -200z m6021 210 c-111 -328 -270
-810 -270 -819 0 -13 80 -50 137 -63 l38 -8 -58 -27 c-56 -25 -135 -47 -227
-63 l-45 -8 -93 -188 c-90 -184 -92 -189 -77 -217 33 -64 5 -149 -60 -176 -44
-18 -59 -18 -101 2 -22 10 -40 31 -54 59 -18 37 -20 49 -10 84 12 45 60 91 95
91 12 0 27 6 33 13 5 6 48 94 96 194 l86 182 -28 48 c-42 72 -101 221 -102
256 0 4 17 -5 38 -21 41 -29 120 -68 125 -61 5 6 384 599 436 682 24 37 44 67
46 67 2 0 0 -12 -5 -27z"/>
<path d="M3495 6807 c-493 -288 -907 -695 -1170 -1152 -122 -211 -216 -454
-277 -710 -19 -76 -22 -121 -22 -290 0 -225 13 -317 85 -615 87 -358 98 -455
58 -537 -40 -83 -290 -291 -536 -446 -228 -143 -492 -254 -664 -280 -79 -11
-81 -12 -99 -48 -29 -55 -97 -266 -110 -338 -13 -73 -5 -122 40 -236 104 -261
359 -702 476 -819 43 -43 172 -137 276 -202 604 -373 1340 -689 1931 -829
l108 -25 142 34 c394 95 848 267 1302 491 370 183 752 415 862 522 169 165
533 848 533 1001 0 55 -41 208 -89 333 l-41 105 -82 11 c-311 43 -839 341
-1135 640 -121 122 -122 158 -23 573 86 361 94 417 95 660 0 202 -2 221 -28
325 -110 436 -299 795 -604 1147 -176 203 -431 424 -670 581 -112 73 -255 158
-265 157 -1 -1 -43 -24 -93 -53z m223 -386 c325 -173 608 -413 797 -676 24
-33 19 -30 -31 19 -187 187 -402 273 -526 210 -115 -59 -54 -220 144 -382 252
-204 406 -379 485 -552 24 -53 65 -181 59 -187 -2 -2 -18 22 -36 54 -104 184
-250 319 -512 475 -121 71 -443 232 -489 243 -18 5 -54 -6 -130 -40 -290 -128
-567 -298 -713 -435 -76 -73 -112 -119 -226 -295 -17 -27 -29 -41 -25 -30 4
11 21 61 37 110 72 215 220 405 489 628 124 102 179 160 210 219 110 213 -130
283 -391 114 -40 -26 -99 -73 -130 -104 -70 -71 -165 -223 -227 -364 -25 -59
-48 -106 -51 -104 -8 9 82 199 141 299 150 252 376 483 662 677 52 35 316 186
332 189 2 1 61 -30 131 -68z m1052 -1136 c75 -150 109 -363 95 -598 -4 -71 -9
-127 -11 -124 -2 2 -8 59 -14 128 -20 229 -67 470 -124 638 -14 41 -26 77 -26
80 1 15 45 -52 80 -124z m-2344 -73 c-14 -50 -31 -126 -38 -169 -7 -43 -14
-70 -16 -61 -7 36 62 337 75 324 3 -3 -7 -45 -21 -94z m1387 -146 c49 -15 110
-38 138 -51 40 -21 53 -23 70 -14 40 21 28 1 -40 -64 -92 -89 -171 -127 -263
-127 -38 0 -68 -4 -68 -8 0 -5 14 -21 30 -37 18 -17 30 -39 30 -54 0 -29 34
-91 50 -91 5 0 10 7 10 15 0 23 13 18 50 -20 43 -45 88 -65 142 -65 124 0 218
79 218 185 0 40 17 46 44 16 20 -21 13 -60 -24 -144 -17 -38 -30 -50 -78 -74
-99 -49 -217 -33 -315 41 -41 31 -47 32 -40 6 5 -18 15 -24 36 -21 4 1 10 -6
13 -14 3 -8 10 -13 14 -10 5 3 15 -1 23 -9 8 -8 17 -12 21 -9 3 4 6 2 6 -4 0
-6 6 -11 13 -10 37 1 68 -4 63 -11 -2 -4 13 -6 35 -4 22 2 45 -1 52 -7 28 -22
165 -23 151 0 -3 5 2 6 10 3 25 -10 152 67 141 86 -3 5 0 12 6 16 8 4 9 3 5
-4 -4 -7 -3 -12 3 -12 6 0 13 11 17 25 3 14 10 25 15 25 40 0 -57 -96 -136
-135 -54 -26 -69 -29 -155 -28 -155 1 -239 29 -378 129 -118 86 -122 87 -168
62 -21 -11 -57 -35 -79 -53 -110 -90 -243 -137 -390 -139 -78 -1 -98 3 -147
26 -145 67 -191 150 -157 281 13 51 74 143 111 165 25 15 28 15 68 -13 l41
-29 -61 -27 c-33 -16 -74 -38 -90 -49 -17 -12 -34 -19 -39 -15 -12 7 -31 -58
-31 -106 0 -81 49 -142 156 -195 52 -25 70 -29 146 -29 56 1 92 5 102 14 9 7
25 11 36 8 12 -3 18 -1 14 5 -5 7 2 9 19 6 15 -3 24 -1 21 3 -5 9 43 25 65 20
7 -1 10 2 7 8 -4 5 4 11 16 13 13 2 22 9 20 17 -2 8 3 11 12 8 8 -3 16 2 19
14 7 25 2 24 -37 -6 -81 -62 -188 -86 -269 -61 -83 25 -109 50 -134 125 -26
75 -28 102 -11 119 26 26 43 14 45 -33 4 -78 45 -133 122 -160 91 -32 191 -9
247 58 24 28 27 30 39 14 7 -9 15 -17 19 -17 10 0 46 81 46 103 0 11 15 33 33
50 l32 32 -85 5 c-67 4 -95 11 -135 33 -60 33 -136 96 -166 139 l-22 30 21
-11 c18 -9 30 -7 69 12 178 89 397 109 586 53z m-1446 -173 c-2 -16 -4 -5 -4
22 0 28 2 40 4 28 2 -13 2 -35 0 -50z m1953 8 c44 -46 79 -115 86 -168 5 -41
0 -36 -11 12 -6 25 -9 28 -18 15 -7 -8 -18 -15 -24 -16 -7 -1 -17 -2 -22 -2
-12 -2 -32 -62 -25 -73 3 -5 0 -8 -8 -7 -7 2 -12 -3 -10 -10 1 -8 -1 -11 -6
-8 -5 3 -15 -6 -22 -19 -7 -14 -18 -25 -23 -25 -5 0 -4 -6 2 -14 9 -10 7 -17
-6 -27 -16 -12 -17 -12 -6 2 16 20 5 32 -16 17 -9 -7 -2 3 15 22 42 47 74 95
74 111 0 19 31 49 52 49 10 0 21 7 25 16 7 20 -28 86 -44 80 -7 -3 -10 0 -8 7
5 13 -9 34 -37 55 -15 12 -23 11 -55 -9 -32 -20 -35 -24 -18 -27 24 -5 142
-70 151 -83 9 -15 -6 -10 -37 12 -16 11 -56 32 -89 48 l-61 27 38 27 c21 14
44 26 52 26 8 1 31 -17 51 -38z m-1952 -76 c-3 -3 -9 2 -12 12 -6 14 -5 15 5
6 7 -7 10 -15 7 -18z m-7 -48 c-10 -9 -11 -8 -5 6 3 10 9 15 12 12 3 -3 0 -11
-7 -18z m149 15 c0 -5 -7 -17 -15 -28 -14 -18 -14 -17 -4 9 12 27 19 34 19 19z
m351 -49 c8 -10 25 -40 38 -67 14 -26 35 -55 47 -63 12 -8 25 -22 29 -31 13
-36 -66 54 -92 104 -15 29 -37 57 -48 63 -15 7 -16 10 -4 10 9 1 22 -7 30 -16z
m-494 -120 c-2 -21 -4 -4 -4 37 0 41 2 58 4 38 2 -21 2 -55 0 -75z m102 68
c-6 -18 -14 -30 -17 -27 -2 3 1 19 8 36 16 40 23 33 9 -9z m651 -1 c6 0 10 4
10 10 0 5 11 12 25 16 32 8 75 -19 75 -47 0 -15 5 -19 16 -15 9 3 24 6 34 6
10 0 32 12 49 26 34 28 40 22 15 -14 -24 -35 -70 -53 -133 -53 -89 -1 -141 33
-141 92 l0 23 20 -22 c12 -12 25 -22 30 -22z m992 -4 c-42 -94 -249 -92 -283
3 -9 23 -9 23 22 -3 18 -15 43 -26 60 -26 16 0 32 -1 37 -2 4 -2 8 7 10 20 2
13 15 28 29 35 20 9 31 8 56 -7 31 -17 32 -17 47 2 20 27 37 10 22 -22z m295
-43 c-3 -10 -5 -2 -5 17 0 19 2 27 5 18 2 -10 2 -26 0 -35z m-1968 -74 c-7
-41 -15 -78 -20 -83 -4 -5 -6 0 -4 10 2 10 9 50 16 87 6 37 13 66 16 64 2 -2
-2 -38 -8 -78z m-56 -74 c4 -43 4 -50 -2 -25 -14 59 -21 116 -12 100 5 -8 11
-42 14 -75z m1817 60 c0 -2 -10 -9 -22 -15 -22 -11 -22 -10 -4 4 21 17 26 19
26 11z m-1160 -29 c0 -2 -7 -7 -16 -10 -8 -3 -12 -2 -9 4 6 10 25 14 25 6z
m1110 -20 c-7 -7 -13 -7 -20 0 -6 6 -3 10 10 10 13 0 16 -4 10 -10z m-26 -11
c11 -8 16 -15 10 -15 -5 0 -18 7 -28 15 -11 8 -16 15 -10 15 5 0 18 -7 28 -15z
m-999 -5 c3 -5 2 -10 -4 -10 -5 0 -13 5 -16 10 -3 6 -2 10 4 10 5 0 13 -4 16
-10z m959 2 c2 -4 -4 -9 -15 -9 -10 -1 -19 2 -19 8 0 11 27 12 34 1z m-907 -8
c-3 -3 -12 -4 -19 -1 -8 3 -5 6 6 6 11 1 17 -2 13 -5z m-760 -46 c-3 -7 -5 -2
-5 12 0 14 2 19 5 13 2 -7 2 -19 0 -25z m-10 -48 c3 -8 7 -26 9 -40 2 -14 6
-41 9 -60 11 -59 -2 -29 -19 43 -15 65 -21 123 -9 87 2 -8 7 -22 10 -30z
m1894 -59 c-36 -45 -104 -93 -165 -115 -22 -9 -67 -25 -98 -36 -72 -27 -144
-80 -198 -147 -68 -87 -113 -199 -181 -453 -57 -215 -79 -282 -79 -238 0 9
-27 119 -61 245 -67 253 -111 361 -186 454 -59 73 -108 105 -243 158 -58 23
-122 55 -144 71 -36 27 -89 90 -83 97 2 2 31 -8 65 -22 34 -14 102 -32 152
-41 92 -15 107 -15 252 13 48 9 94 -6 133 -44 39 -38 101 -154 111 -210 3 -18
9 -33 13 -33 3 0 19 36 34 80 32 89 75 152 127 188 38 26 64 26 189 3 46 -9
83 -9 138 -1 75 10 220 53 237 71 5 5 12 7 14 4 2 -2 -10 -22 -27 -44z m-1469
-1202 c213 -83 451 -245 660 -447 l98 -95 93 89 c176 168 364 307 528 389 95
48 189 88 195 82 2 -1 -29 -27 -68 -57 -102 -78 -261 -240 -345 -352 -40 -53
-100 -146 -133 -208 -33 -61 -73 -130 -88 -153 -33 -48 -132 -223 -158 -279
-10 -21 -20 -38 -24 -38 -3 0 -21 30 -39 68 -34 70 -77 145 -141 247 -21 33
-60 102 -87 152 -26 51 -77 134 -113 185 -75 107 -250 288 -363 377 -43 33
-76 61 -73 61 3 0 29 -9 58 -21z m-563 -349 c0 -47 -4 -102 -10 -124 -19 -69
-118 -157 -286 -254 -195 -114 -731 -359 -759 -348 -13 5 -45 61 -64 110 -8
23 -5 25 77 51 47 14 133 47 190 71 194 83 609 297 711 367 49 33 93 112 114
206 10 47 13 52 19 31 4 -14 7 -63 8 -110z m2727 -65 c28 -44 48 -59 164 -126
256 -146 633 -324 794 -374 47 -15 86 -29 86 -31 0 -12 -61 -123 -70 -129 -16
-10 -318 120 -550 236 -291 146 -438 247 -482 333 -24 48 -34 147 -23 233 l8
58 26 -85 c15 -47 36 -98 47 -115z m-2600 -466 c-9 -46 -27 -107 -41 -135 -54
-110 -213 -222 -490 -345 -195 -87 -400 -163 -419 -156 -18 7 -76 85 -76 101
1 6 74 35 163 64 182 60 439 168 555 234 89 50 228 183 282 269 19 31 36 55
38 54 2 -2 -3 -41 -12 -86z m2429 17 c88 -132 217 -236 392 -317 118 -55 388
-161 493 -193 47 -15 91 -29 98 -31 10 -4 9 -11 -4 -32 -26 -41 -66 -83 -80
-83 -20 0 -272 98 -404 157 -322 145 -466 253 -509 386 -16 50 -41 162 -41
186 0 7 11 -8 55 -73z"/>
<path d="M2867 4891 c-34 -38 -62 -80 -55 -85 2 -1 40 17 85 40 73 38 80 44
65 57 -37 32 -57 29 -95 -12z"/>
<path d="M1660 3647 c-38 -20 -47 -43 -30 -75 17 -30 56 -40 88 -23 61 33 4
129 -58 98z"/>
<path d="M5439 3646 c-51 -25 -27 -106 31 -106 51 0 79 61 43 92 -28 23 -48
27 -74 14z"/>
<path d="M1154 3217 c-22 -19 -26 -29 -20 -51 3 -15 17 -32 31 -38 73 -33 127
64 55 102 -27 14 -36 13 -66 -13z"/>
<path d="M5923 3225 c-44 -31 -19 -105 35 -105 27 0 62 33 62 58 0 46 -59 74
-97 47z"/>
</g>
</svg>
